<?xml version="1.0" encoding="UTF-8"?>
<svg width="12px" height="22px" viewBox="0 0 12 22" version="1.1" xmlns="http://www.w3.org/2000/svg" xmlns:xlink="http://www.w3.org/1999/xlink">
    <!-- Generator: Sketch 53.2 (72643) - https://sketchapp.com -->
    <title>Combined Shape</title>
    <desc>Created with Sketch.</desc>
    <g id="Page-1" stroke="none" stroke-width="1" fill="none" fill-rule="evenodd">
        <g id="About" transform="translate(-455.000000, -251.000000)" fill="#343434">
            <path d="M455.416161,259.930693 C455.147555,259.188792 455,258.38049 455,257.534653 C455,253.925664 457.686292,251 461,251 C464.313708,251 467,253.925664 467,257.534653 C467,258.38049 466.852445,259.188792 466.583839,259.930693 L466.6,259.930693 L461,273 L455.4,259.930693 L455.416161,259.930693 Z M461,261 C463.209139,261 465,259.209139 465,257 C465,254.790861 463.209139,253 461,253 C458.790861,253 457,254.790861 457,257 C457,259.209139 458.790861,261 461,261 Z" id="Combined-Shape"></path>
        </g>
    </g>
</svg>