<?xml version="1.0" encoding="UTF-8"?>
<svg width="128px" height="149px" viewBox="0 0 128 149" version="1.1" xmlns="http://www.w3.org/2000/svg" xmlns:xlink="http://www.w3.org/1999/xlink">
    <!-- Generator: Sketch 55.2 (78181) - https://sketchapp.com -->
    <title>logo3</title>
    <desc>Created with Sketch.</desc>
    <g id="Page-1" stroke="none" stroke-width="1" fill="none" fill-rule="evenodd">
        <g id="Artboard" transform="translate(-37.000000, -26.000000)">
            <g id="logo3" transform="translate(35.000000, 26.000000)">
                <path d="M39,149 L39,0 L129.291676,0 C129.291676,18.48454 129.291676,26.2714279 129.291676,23.3606639 C129.291676,18.9945179 122.11021,12.3320505 113.509377,10.7840889 C104.908543,9.23612736 80,9.23612736 71.1216296,10.7840889 C65.202716,11.8160633 61.3036675,16.008255 59.424484,23.3606639 C59.424484,90.4853213 59.424484,126.391172 59.424484,131.078215 C59.424484,135.765258 62.949656,141.739186 70,149 L39,149 Z M59.424484,58.8335297 L95.8049622,58.8335297 C101.268321,56.4743816 104,53.0065116 104,48.4299199 C104,43.8533282 104,54.3052583 104,79.7857102 C102.314949,72.119552 99.5832696,68.2864729 95.8049622,68.2864729 C92.0266548,68.2864729 79.8998288,68.2864729 59.424484,68.2864729 L59.424484,58.8335297 Z" id="Combined-Shape" fill="#000000"></path>
                <path d="M10.0352394,148 C18.7091881,148 20.9722666,148 40,148 L40,1 L6.50159469,1 C16.832134,6.90495695 22.0525583,12.4898303 22.0525583,17.9180048 C22.0525583,20.9859823 22.0525583,20.9859823 22.0525583,28.0765438 C22.0525583,37.1783973 22.0525583,37.1783973 22.0525583,50.3028349 C22.0525583,82.5855863 22.0525583,82.5855863 22.0525583,130.958674 L22.0525583,131.144264 L21.9859644,131.317496 C18.7791469,139.659417 14.7977234,145.245815 10.0352394,148 Z" id="Path-6" stroke="#000000" stroke-width="2"></path>
            </g>
        </g>
    </g>
</svg>